<?xml version="1.0" standalone="no"?>
<!DOCTYPE svg PUBLIC "-//W3C//DTD SVG 20010904//EN"
 "http://www.w3.org/TR/2001/REC-SVG-20010904/DTD/svg10.dtd">
<svg version="1.0" xmlns="http://www.w3.org/2000/svg"
 width="512.000000pt" height="512.000000pt" viewBox="0 0 512.000000 512.000000"
 preserveAspectRatio="xMidYMid meet">
<metadata>
Created by potrace 1.16, written by Peter Selinger 2001-2019
</metadata>
<g transform="translate(0.000000,512.000000) scale(0.100000,-0.100000)"
fill="#000000" stroke="none">
<path d="M1185 3823 c-151 -79 -165 -280 -27 -378 l44 -30 1358 0 1358 0 44
30 c135 96 123 301 -23 375 -37 20 -64 20 -1381 20 -1203 -1 -1346 -2 -1373
-17z"/>
<path d="M2055 2764 c-84 -31 -135 -108 -135 -204 0 -102 60 -184 154 -209 30
-9 289 -11 936 -9 985 3 918 -1 984 64 46 46 60 83 61 154 0 85 -34 147 -103
187 l-47 28 -905 2 c-773 2 -911 0 -945 -13z"/>
<path d="M1200 1699 c-141 -57 -184 -255 -77 -356 71 -68 -44 -63 1437 -63
1314 0 1342 0 1379 20 146 74 158 279 23 375 l-44 30 -1346 2 c-872 1 -1356
-2 -1372 -8z"/>
</g>
</svg>
